# xmcd
#
# Track frame offsets: 
#        300
#        21922
#        37012
#        56642
#        79207
#        90868
#        115329
#        138826
#        163004
#        181516
#        204013
#
# Disc length: 3029 seconds
#
# Revision: 0
# Processed by: cddbd v1.5.2PL0 Copyright (c) Steve Scherf et al.
# Submitted via: ExactAudioCopy v1.0b1
#
DISCID=820bd10b
DTITLE=Indigenous - Circle
DYEAR=2000
DGENRE=Blues Rock
TTITLE0=Little Time
TTITLE1=Can't Keep Me From You
TTITLE2=You Left Me This Mornin'
TTITLE3=Evolution Revolution
TTITLE4=You Were The One
TTITLE5=Stay With Me
TTITLE6=Seven Steps Away
TTITLE7=Remember
TTITLE8=Rest Of My Days
TTITLE9=Waiting For You
TTITLE10=The Moon Is Shining
EXTD=
EXTT0=
EXTT1=
EXTT2=
EXTT3=
EXTT4=
EXTT5=
EXTT6=
EXTT7=
EXTT8=
EXTT9=
EXTT10=
PLAYORDER=
